<?xml version="1.0" encoding="UTF-8" standalone="no"?>
<svg width="200px" height="200px" viewBox="0 0 200 200" version="1.1" xmlns="http://www.w3.org/2000/svg" xmlns:xlink="http://www.w3.org/1999/xlink" xmlns:sketch="http://www.bohemiancoding.com/sketch/ns">
    <!-- Generator: Sketch 3.4.2 (15855) - http://www.bohemiancoding.com/sketch -->
    <title>Artboard 1</title>
    <desc>Created with Sketch.</desc>
    <defs></defs>
    <g id="Page-1" stroke="none" stroke-width="1" fill="none" fill-rule="evenodd" sketch:type="MSPage">
        <g id="Artboard-1" sketch:type="MSArtboardGroup">
            <g id="Rectangle-1-+-HR" sketch:type="MSLayerGroup" transform="translate(15.000000, 15.000000)">
                <rect id="Rectangle-1" stroke="#FFFFFF" stroke-width="8" sketch:type="MSShapeGroup" x="0" y="0" width="170" height="170"></rect>
                <path d="M95.032,62.64 C99.4,54.84 99.712,49.952 98.256,46.936 C97.632,45.584 96.696,45.48 95.656,46.832 C91.496,52.344 82.344,68.88 75.584,82.296 C68.72,82.712 62.272,84.48 55.096,85.416 C59.672,76.784 63.936,69.4 66.952,63.576 C70.8,56.192 71.112,51.096 69.552,48.184 C68.928,47.04 67.992,46.832 67.056,48.08 C62.792,54.112 53.12,72.104 46.464,85.936 C45.112,85.936 43.656,85.728 42.096,85.624 C40.328,85.52 40.12,85.936 40.744,87.184 C41.16,88.016 41.992,89.472 44.28,90.512 C42.2,95.192 40.432,98.936 39.808,101.12 C38.04,107.464 38.768,110.376 40.328,112.56 C40.952,113.496 41.784,113.184 42.2,112.144 C45.216,105.176 48.44,98.312 51.664,91.864 C56.552,91.864 64.56,90.512 72.152,89.576 C70.072,93.84 68.512,97.48 67.784,99.56 C65.704,105.904 66.64,108.92 68.096,111 C68.72,111.936 69.448,111.832 69.864,110.792 C73.296,102.992 76.936,95.504 80.472,88.744 C82.656,88.64 84.632,88.744 86.296,89.056 C87.336,89.264 87.648,88.744 87.44,87.912 C87.024,86.144 85.776,84.376 83.384,83.336 C87.856,75.224 91.912,68.256 95.032,62.64 L95.032,62.64 Z M99.088,90.72 C103.976,96.128 109.384,102.888 116.248,112.248 C116.872,113.184 117.392,112.872 117.912,112.04 C119.264,109.96 118.848,106.424 117.392,103.616 C115.208,99.248 111.464,94.256 107.512,89.368 C119.056,86.664 130.288,80.112 135.904,72.624 C139.856,67.32 141.312,60.976 139.128,54.736 C136.632,47.664 132.056,46.104 126.752,46.312 C119.784,46.624 111.984,50.888 103.248,51.928 C101.896,52.136 101.584,52.656 102.104,53.696 C103.352,55.984 105.224,57.544 108.76,57.856 C99.608,72.208 89.832,91.968 87.232,101.432 C85.672,107.048 86.712,110.168 88.168,111.728 C88.896,112.456 89.416,112.352 89.832,111.312 C93.264,102.784 96.28,96.232 99.088,90.72 L99.088,90.72 Z M115.104,57.232 C121.968,55.36 132.368,49.952 134.656,55.776 C137.672,63.16 125.92,78.344 102.936,83.44 C105.744,78.344 108.344,73.976 111.152,68.984 C113.96,63.784 115.104,60.144 115.104,57.232 L115.104,57.232 Z" id="HR" fill="#FFFFFF" sketch:type="MSShapeGroup"></path>
            </g>
        </g>
    </g>
</svg>